<?xml version="1.0" standalone="no"?>
<!DOCTYPE svg PUBLIC "-//W3C//DTD SVG 20010904//EN"
 "http://www.w3.org/TR/2001/REC-SVG-20010904/DTD/svg10.dtd">
<svg version="1.0" xmlns="http://www.w3.org/2000/svg"
 width="1280.000000pt" height="2304.000000pt" viewBox="0 0 1280.000000 2304.000000"
 preserveAspectRatio="xMidYMid meet">
<metadata>
Created by potrace 1.16, written by Peter Selinger 2001-2019
</metadata>
<g transform="translate(0.000000,2304.000000) scale(0.100000,-0.100000)"
fill="#000000" stroke="none">
<path d="M11525 23025 c-152 -29 -313 -100 -439 -194 -41 -31 -176 -155 -298
-276 -356 -350 -742 -729 -1043 -1025 -154 -151 -404 -396 -555 -544 -151
-149 -398 -391 -548 -538 -150 -147 -395 -388 -545 -535 -150 -148 -396 -389
-547 -538 -151 -148 -399 -391 -550 -540 -279 -273 -595 -583 -1098 -1077
-152 -150 -399 -392 -547 -538 -149 -146 -396 -389 -550 -540 -154 -151 -404
-396 -555 -544 -151 -149 -397 -390 -545 -536 -302 -296 -688 -675 -1100
-1080 -151 -148 -398 -390 -548 -538 -149 -147 -508 -499 -797 -782 -1080
-1059 -1092 -1072 -1172 -1248 -58 -131 -80 -225 -85 -379 -8 -214 20 -351
108 -528 81 -160 30 -106 1119 -1175 289 -283 649 -636 800 -785 151 -148 398
-392 550 -540 151 -149 399 -392 550 -541 151 -148 401 -393 555 -544 154
-151 403 -396 554 -545 152 -148 399 -391 550 -540 152 -148 399 -391 550
-540 152 -148 399 -391 551 -540 151 -148 399 -391 550 -540 151 -148 398
-391 550 -540 151 -148 398 -391 550 -540 151 -148 398 -391 550 -540 151
-148 398 -392 550 -540 260 -256 467 -460 1107 -1088 150 -147 395 -388 545
-535 805 -790 745 -734 860 -809 159 -103 327 -154 536 -161 218 -7 368 24
543 114 262 135 446 358 536 650 26 84 27 100 27 279 0 164 -3 201 -22 269
-30 106 -101 253 -168 346 -40 56 -534 548 -1805 1796 -963 946 -1780 1748
-1817 1783 -37 35 -189 184 -337 330 -149 146 -394 388 -545 536 -152 149
-401 394 -555 545 -154 151 -402 394 -550 540 -477 467 -823 808 -1105 1085
-403 396 -1239 1217 -2205 2164 -467 459 -906 890 -975 958 l-125 124 185 181
c102 100 415 407 695 683 281 276 1383 1358 2450 2405 1067 1047 2057 2018
2200 2159 244 241 426 419 1090 1071 148 146 394 387 545 535 151 149 396 389
545 535 148 146 394 387 545 536 151 149 536 526 855 838 944 925 920 899
1011 1091 76 159 88 220 88 440 0 178 -2 195 -27 278 -89 289 -273 514 -529
647 -96 51 -195 85 -301 105 -97 18 -314 18 -412 0z"/>
</g>
</svg>
