<svg width="178" height="49" viewBox="0 0 178 49" fill="none" xmlns="http://www.w3.org/2000/svg">
<path d="M135.845 46.2538H177.993V45.7874H135.845V46.2538Z" fill="white"/>
<path d="M0 46.2538H42.1468V45.7874H0V46.2538Z" fill="white"/>
<path d="M52.756 48.484H54.7616C56.3383 48.484 57.4011 47.4704 57.4011 46.0202C57.4011 44.5706 56.3383 43.5577 54.7616 43.5577H52.756V48.484ZM53.2766 48.0329V44.0081H54.7341C56.0427 44.0081 56.8871 44.8381 56.8871 46.0202C56.8871 47.2029 56.0427 48.0329 54.7341 48.0329H53.2766ZM68.2796 48.0329V46.2038H70.8273V45.7599H68.2796V44.0081H71.1375V43.5577H67.7583V48.484H71.243V48.0329H68.2796ZM83.0151 48.526C84.2752 48.526 84.8522 47.9064 84.8522 47.182C84.8522 45.3876 81.8186 46.2038 81.8186 44.8519C81.8186 44.3588 82.2191 43.959 83.1207 43.959C83.5566 43.959 84.0497 44.092 84.4719 44.3667L84.6476 43.9518C84.2536 43.677 83.6759 43.5151 83.1207 43.5151C81.8678 43.5151 81.3046 44.1412 81.3046 44.8663C81.3046 46.6896 84.3374 45.8582 84.3374 47.2102C84.3374 47.696 83.9362 48.0821 83.0151 48.0821C82.3673 48.0821 81.7405 47.829 81.3892 47.4849L81.1853 47.8854C81.5511 48.2657 82.2755 48.526 83.0151 48.526ZM95.174 48.484H95.6945V43.5577H95.174V48.484ZM109.959 47.6815C109.579 47.9563 109.142 48.0618 108.671 48.0618C107.461 48.0618 106.566 47.1885 106.566 46.0202C106.566 44.8453 107.461 43.98 108.678 43.98C109.255 43.98 109.748 44.1484 110.163 44.5562L110.487 44.2258C110.051 43.7544 109.403 43.5151 108.657 43.5151C107.151 43.5151 106.053 44.5778 106.053 46.0202C106.053 47.4632 107.151 48.526 108.649 48.526C109.333 48.526 109.994 48.3149 110.459 47.8992V46.0202H109.959V47.6815ZM124.722 43.5577V47.555L121.549 43.5577H121.119V48.484H121.64V44.486L124.807 48.484H125.236V43.5577H124.722Z" fill="white"/>
<path d="M167.141 5.72205e-06C155.642 0.00434303 154.095 11.8386 154.095 11.8386C165.276 11.0383 167.141 5.72205e-06 167.141 5.72205e-06Z" fill="white"/>
<path d="M87.7935 20.1835C88.2251 22.8613 87.9084 24.3456 86.8435 24.6333C86.584 24.6912 86.2955 24.6471 85.9788 24.5039C84.8561 23.927 83.8909 22.1413 83.0848 19.1467C82.4226 16.6706 82.2924 14.8415 82.6958 13.6609C82.9547 12.969 83.3436 12.5952 83.8627 12.5374C84.1794 12.5374 84.5394 12.6964 84.9421 13.0131C85.8639 13.877 86.67 15.5464 87.3619 18.024C87.5347 18.7722 87.6785 19.4923 87.7935 20.1835ZM81.2709 32.1927C83.1716 32.3366 85.3021 32.4515 87.6634 32.5383C88.643 32.625 89.3486 32.8983 89.7802 33.3588C90.3282 34.05 90.1258 34.885 89.1758 35.8646C87.9663 37.1031 86.3823 37.7219 84.4237 37.7219C84.0492 37.7219 83.661 37.693 83.2583 37.6352C81.5875 37.3474 80.5935 36.5413 80.2768 35.2169C79.9891 34.0362 80.3202 33.0284 81.2709 32.1927ZM90.9904 11.9322C91.1437 12.4398 91.6823 12.7102 92.4588 12.6675C92.9801 12.6379 93.4522 12.3935 93.8845 12.019C94.7766 11.2411 95.0217 10.2767 94.6183 9.12497C94.6183 9.09605 94.6046 9.05267 94.5756 8.99483C94.1151 7.87207 93.2078 7.28213 91.8544 7.26767C90.6449 7.25465 89.4845 7.70434 88.4846 8.69336C88.0357 9.13726 87.6785 9.70045 87.3619 10.3345C87.1891 10.6801 86.9874 11.1992 86.7568 11.8896C86.1805 11.7746 85.6195 11.7168 85.0722 11.7168C83.2287 11.7168 81.5731 12.2496 80.104 13.3153C78.2322 14.6976 77.296 16.4689 77.296 18.6284C77.296 20.8457 78.2756 22.6604 80.2341 24.0716C79.3702 24.3304 78.6357 24.7338 78.0305 25.2811C76.821 26.4046 76.3894 27.7146 76.735 29.2119C77.0227 30.5074 77.7573 31.3143 78.9379 31.6309C77.296 32.1211 76.4465 33.0133 76.3894 34.3095C76.3894 34.5973 76.4321 34.8713 76.5188 35.1301C77.0661 37.2903 79.6869 38.3704 84.3804 38.3704C86.4249 38.3704 88.254 38.0538 89.867 37.4197C92.8622 36.268 94.3595 34.3818 94.3595 31.7603C94.3595 30.5515 93.9279 29.6153 93.0639 28.9523C92.2 28.2901 91.1126 27.8657 89.8019 27.6785C88.4919 27.4912 86.6989 27.398 84.4237 27.398C83.7897 27.398 83.1998 27.3546 82.6532 27.2686C80.9535 27.009 80.0035 26.4906 79.8018 25.7127C79.7158 25.1662 80.0903 24.762 80.9253 24.5039C82.1341 25.1944 83.5171 25.5407 85.0722 25.5407C86.9151 25.5407 88.5714 25.0216 90.0397 23.9848C91.9115 22.5743 92.847 20.7879 92.847 18.6284C92.847 17.6495 92.6171 16.6995 92.1566 15.7777C91.2059 13.877 89.6226 12.6234 87.4045 12.019C87.5484 11.3278 87.9229 10.7379 88.528 10.2485C89.4787 9.49947 90.3195 9.42861 90.8169 10.2051C90.9218 10.3677 90.9615 10.594 90.9904 10.8529C90.9615 11.4291 90.9478 11.792 90.9904 11.9322Z" fill="white"/>
<path d="M178 28.5611C177.974 28.7845 177.856 28.8489 177.654 28.8778H167.2C166.984 28.872 166.902 28.8062 166.865 28.7267C166.827 28.6472 166.829 28.5445 166.829 28.5445C166.835 28.4874 166.856 28.4418 166.885 28.4042C167.03 28.2307 167.248 28.2177 167.248 28.2177C168.252 28.0623 168.815 27.5078 168.928 26.5455C169.015 26.0271 169.001 25.2926 168.886 24.3426L168.194 17.6465C167.82 14.738 166.84 13.2978 165.257 13.3268C165.078 13.3246 165.073 13.3354 164.963 13.3456C163.81 13.4894 163.068 14.4351 162.837 16.1348C162.722 16.9127 162.665 18.021 162.665 19.4611V24.3426C162.665 26.3872 163.169 27.6111 164.178 28.0138C164.374 28.0883 164.588 28.1461 164.807 28.1996C164.814 28.1989 164.817 28.1917 164.825 28.1917C164.927 28.1917 165.013 28.2408 165.076 28.3124C165.168 28.3695 165.238 28.4382 165.257 28.5322C165.199 28.7339 165.099 28.8489 164.955 28.8778H154.512C154.46 28.8633 154.423 28.8713 154.391 28.8496C154.268 28.8004 154.171 28.6833 154.171 28.5438C154.171 28.4006 154.258 28.2943 154.384 28.2459C154.426 28.2271 154.415 28.2372 154.475 28.2235C155.626 28.0796 156.257 27.4817 156.487 26.4161C156.602 25.897 156.66 25.2058 156.66 24.3426V20.1949C156.66 18.2371 156.387 16.9842 155.84 16.437C155.493 16.1203 155.007 15.8723 154.488 15.7284C154.439 15.7024 154.428 15.7031 154.401 15.6822C154.305 15.6215 154.226 15.5173 154.226 15.3952C154.226 15.2101 154.373 15.0655 154.556 15.0568L154.601 15.0525C157.28 14.9954 159.684 14.0902 161.93 12.3334L162.131 12.1534C162.208 12.0724 162.323 12.097 162.323 12.097C162.513 12.097 162.667 12.2503 162.667 12.4397L162.665 12.6775V14.0606C163.731 12.8228 165.156 12.2033 166.942 12.2033C171.117 12.2322 173.536 14.2485 174.199 18.2509L174.89 24.3426C175.149 26.3872 175.797 27.6111 176.834 28.0138C177.058 28.089 177.283 28.1483 177.506 28.2011L177.703 28.2531C177.703 28.2531 177.996 28.3196 178 28.5611Z" fill="white"/>
<path d="M121.532 15.6907C121.993 13.7618 122.799 12.7967 123.951 12.7967C124.152 12.7967 124.354 12.8256 124.556 12.8827C125.621 13.1422 126.254 14.3084 126.457 16.3819V16.7715C126.513 18.8732 124.872 20.1261 121.532 20.5288C121.128 18.9744 121.128 17.3615 121.532 15.6907ZM131.338 23.9853C130.992 24.5608 130.531 25.051 129.955 25.4536C128.544 26.4043 126.974 26.52 125.247 25.7992C123.346 24.9931 122.15 23.438 121.662 21.1339L127.968 20.4001C129.495 20.1984 130.474 19.5072 130.906 18.3266C131.28 17.1164 131.021 15.9358 130.128 14.7834C129.984 14.6113 129.812 14.4241 129.61 14.2224C128.199 12.8408 126.327 12.1489 123.994 12.1489C121.719 12.1489 119.847 12.6521 118.379 13.6606C116.045 15.3025 115.038 17.9225 115.354 21.5229C115.411 22.1273 115.527 22.6753 115.7 23.1647C116.045 24.3735 116.65 25.4536 117.514 26.4043C119.242 28.219 121.431 29.1256 124.08 29.1256C128.458 29.1256 131.137 27.3999 132.145 23.8566C132.179 23.7019 132.189 23.4908 131.985 23.4236C131.842 23.3946 131.626 23.5819 131.338 23.9853Z" fill="white"/>
<path d="M141.359 15.6786C141.821 13.7498 142.627 12.7846 143.779 12.7846C143.98 12.7846 144.181 12.8135 144.384 12.8706C145.449 13.1302 146.083 14.2963 146.284 16.3698V16.7588C146.342 18.8611 144.7 20.1133 141.359 20.5167C140.956 18.9616 140.956 17.3494 141.359 15.6786ZM151.946 23.9082C151.946 23.7188 151.792 23.551 151.602 23.5648C151.428 23.5778 151.348 23.6776 151.348 23.6776L151.309 23.731C151.287 23.7629 151.222 23.8807 151.198 23.9277C150.852 24.5039 150.359 25.0382 149.783 25.4416C148.371 26.3923 146.802 26.5072 145.075 25.7872C143.174 24.9811 141.978 23.426 141.49 21.1219L147.796 20.3873C149.323 20.1856 150.302 19.4945 150.733 18.3146C151.108 17.1043 150.849 15.9237 149.956 14.7713C149.812 14.5985 149.639 14.4113 149.438 14.2103C148.027 12.828 146.155 12.1368 143.822 12.1368C141.547 12.1368 139.675 12.64 138.207 13.6486C135.874 15.2897 134.866 17.9104 135.182 21.5108C135.24 22.1152 135.354 22.6632 135.528 23.152C135.874 24.3615 136.478 25.4416 137.342 26.3923C139.071 28.2069 141.259 29.1135 143.908 29.1135C148.285 29.1135 150.935 27.4898 151.943 23.9472L151.946 23.9082Z" fill="white"/>
<path d="M44.8112 15.6907C45.2717 13.7618 46.0778 12.7967 47.2302 12.7967C47.4312 12.7967 47.6337 12.8256 47.8346 12.8827C48.9003 13.1422 49.5336 14.3084 49.7353 16.3819V16.7715C49.7932 18.8732 48.1513 20.1261 44.8112 20.5288C44.4078 18.9744 44.4078 17.3615 44.8112 15.6907ZM55.3831 23.9405C55.3766 23.7626 55.2378 23.6108 55.06 23.6173C54.9233 23.6231 54.8467 23.7055 54.8467 23.7055C54.8373 23.7142 54.8315 23.7221 54.8236 23.7323C54.7751 23.7836 54.7202 23.8559 54.6464 23.9831C54.3009 24.5586 53.8107 25.051 53.2345 25.4536C51.8233 26.4043 50.2537 26.52 48.5258 25.7992C46.6251 24.9931 45.4301 23.438 44.9406 21.1339L51.2478 20.4001C52.774 20.1984 53.7536 19.5072 54.1852 18.3266C54.5597 17.1164 54.3001 15.9358 53.4073 14.7834C53.2634 14.6113 53.0906 14.4241 52.8889 14.2224C51.4777 12.8408 49.6059 12.1489 47.2729 12.1489C44.9977 12.1489 43.126 12.6521 41.6576 13.6606C39.3246 15.3025 38.3168 17.9225 38.6334 21.5229C38.6913 22.1273 38.8062 22.6753 38.979 23.1647C39.3246 24.3735 39.9297 25.4536 40.7937 26.4043C42.5216 28.219 44.71 29.1256 47.3589 29.1256C51.7372 29.1256 54.3587 27.5972 55.3665 24.054C55.3665 24.054 55.3839 23.9636 55.3831 23.9405Z" fill="white"/>
<path d="M70.4229 11.9286C69.9305 11.9286 69.4071 12.0082 68.836 12.1506C67.9315 12.4051 67.0423 12.9603 66.1537 13.7852V12.4998C66.1537 12.4369 66.1603 12.3573 66.1198 12.2822C66.0005 12.0609 65.7886 12.0559 65.5826 12.2301C65.5125 12.2822 65.5031 12.3096 65.4235 12.3573C63.186 14.1026 60.7575 15.0236 58.1071 15.135H58.0276C57.9799 15.135 57.9488 15.1502 57.917 15.1661C57.8056 15.2297 57.742 15.341 57.742 15.4524C57.742 15.5948 57.8223 15.7256 57.9813 15.7719C57.9813 15.7719 58.0117 15.7849 58.0276 15.7849C58.123 15.8008 58.2185 15.8326 58.3291 15.8645C59.5357 16.2455 60.1546 17.674 60.1546 20.1813V24.3239C60.1546 25.1965 60.0909 25.879 59.9796 26.4032C59.7099 27.4659 59.0275 28.0696 57.9011 28.212C57.7261 28.2438 57.5656 28.3161 57.5519 28.5135C57.5519 28.6856 57.6423 28.8374 57.9011 28.8627H68.3913C68.5656 28.8627 68.7333 28.7817 68.7405 28.5135C68.7087 28.3711 68.7239 28.2944 68.3913 28.212C68.1376 28.165 67.8997 28.0855 67.6611 28.006C66.6613 27.5932 66.1537 26.3713 66.1537 24.3239V19.2769C66.1537 18.1187 66.2015 17.1817 66.281 16.4197C66.5188 14.4995 67.2642 13.3413 68.5345 12.9762C68.7882 12.9444 69.042 12.9603 69.3117 13.008C69.9941 13.2141 70.3592 13.7375 70.3911 14.5631C70.3592 14.8805 70.1373 15.1979 69.7404 15.5153C69.1533 15.9281 68.8678 16.3568 68.8678 16.8166C68.8996 17.674 69.4071 18.2611 70.3911 18.5785C70.5501 18.6421 70.7243 18.6739 70.8993 18.6739C72.137 18.8163 73.0574 18.3883 73.661 17.3726C74.3905 16.1341 74.4541 14.9441 73.883 13.7852C73.1846 12.5475 72.0416 11.9286 70.4229 11.9286Z" fill="white"/>
<path d="M108.91 11.9286C108.434 11.9286 107.894 12.0082 107.323 12.1506C106.434 12.4051 105.529 12.9603 104.641 13.7852L104.645 12.4571C104.645 12.4542 104.642 12.4535 104.642 12.4506C104.642 12.4477 104.645 12.4463 104.645 12.4434C104.645 12.2648 104.5 12.1202 104.321 12.1202C104.27 12.1202 104.232 12.1535 104.19 12.1752C104.171 12.1759 104.164 12.1737 104.141 12.1752C104.092 12.2077 103.999 12.2923 103.911 12.3573C101.673 14.1026 99.2287 15.0236 96.5624 15.135C96.5132 15.1422 96.4995 15.1473 96.4532 15.1661C96.4445 15.169 96.4192 15.182 96.4192 15.182C96.3245 15.2297 96.245 15.341 96.245 15.4683C96.245 15.6107 96.3259 15.7206 96.464 15.7647C96.464 15.7647 96.5399 15.7929 96.5559 15.7929C96.6614 15.8175 96.7055 15.8326 96.8161 15.8645C98.0379 16.2455 98.6409 17.674 98.6409 20.1813V24.3239C98.6409 25.1965 98.578 25.879 98.4667 26.4032C98.197 27.4659 97.5145 28.0696 96.3874 28.212C96.1835 28.238 96.0527 28.3479 96.0382 28.5395C96.07 28.7145 96.0932 28.8077 96.3874 28.8627H106.894C107.077 28.8489 107.196 28.7817 107.233 28.546C107.243 28.3732 107.085 28.2756 106.894 28.212C106.625 28.165 106.387 28.0855 106.148 28.006C105.148 27.5932 104.641 26.3713 104.641 24.3239V19.2769C104.641 18.1187 104.688 17.1817 104.768 16.4197C105.006 14.4995 105.752 13.3413 107.022 12.9762C107.275 12.9444 107.529 12.9603 107.799 13.008C108.481 13.2141 108.846 13.7375 108.878 14.5631C108.846 14.8805 108.624 15.1979 108.227 15.5153C107.656 15.9281 107.355 16.3568 107.355 16.8166C107.387 17.674 107.894 18.2611 108.878 18.5785C109.052 18.6421 109.227 18.6739 109.386 18.6739C110.624 18.8163 111.56 18.3883 112.163 17.3726C112.878 16.1341 112.957 14.9441 112.369 13.7852C111.688 12.5475 110.529 11.9286 108.91 11.9286Z" fill="white"/>
<path d="M6.23483 15.6907C6.69536 13.7618 7.50147 12.7967 8.65316 12.7967C8.85559 12.7967 9.05658 12.8256 9.25828 12.8827C10.3247 13.1422 10.958 14.3084 11.1597 16.3819V16.7715C11.2168 18.8732 9.57567 20.1261 6.23483 20.5288C5.8307 18.9744 5.8307 17.3615 6.23483 15.6907ZM16.8241 23.9087C16.8241 23.7308 16.6795 23.5855 16.501 23.5855C16.501 23.5855 16.3744 23.5819 16.3058 23.6592C16.2364 23.7373 16.1952 23.806 16.1952 23.806C15.8503 24.3815 15.2336 25.051 14.6581 25.4536C13.2469 26.4043 11.6773 26.52 9.95016 25.7992C8.04948 24.9931 6.85369 23.438 6.36425 21.1339L12.6707 20.4001C14.1976 20.1984 15.1765 19.5072 15.6088 18.3266C15.9826 17.1164 15.7238 15.9358 14.8309 14.7834C14.687 14.6113 14.5143 14.4241 14.3125 14.2224C12.9013 12.8408 11.0296 12.1489 8.69726 12.1489C6.42136 12.1489 4.5496 12.6521 3.08053 13.6606C0.748237 15.3025 -0.259578 17.9225 0.0578041 21.5229C0.114918 22.1273 0.22987 22.6753 0.403382 23.1647C0.748237 24.3735 1.35336 25.4536 2.21731 26.4043C3.9452 28.219 6.13434 29.1256 8.78329 29.1256C13.1609 29.1256 15.8062 27.5264 16.814 23.9831L16.8241 23.9087Z" fill="white"/>
<path d="M32.9019 12.7907C34.2437 12.7986 34.4678 13.9655 33.5772 16.2905L30.8986 23.2889L27.8317 16.6361C27.7457 16.4055 27.6886 16.2334 27.6597 16.1185C26.9389 14.2178 27.0784 13.1145 28.0862 12.7979C28.1094 12.7899 28.1397 12.7776 28.1585 12.769C28.2959 12.7191 28.4007 12.6186 28.4007 12.4718C28.4007 12.3605 28.3421 12.2752 28.2561 12.2166C28.2561 12.2166 28.1542 12.1429 28.0118 12.1429L18.5018 12.1436C18.4953 12.1443 18.4946 12.1429 18.4881 12.1436H18.4751C18.2972 12.1436 18.1526 12.2882 18.1526 12.4668C18.1526 12.6258 18.2748 12.7422 18.4259 12.769C18.4397 12.7755 18.4628 12.7755 18.478 12.7813C18.5944 12.7964 18.7173 12.8355 18.8901 12.9215C19.3788 13.2671 20.1574 14.4911 21.2231 16.5927L26.0641 27.5905C26.4031 28.3626 27.1673 28.8615 28.0103 28.8615C28.8923 28.8615 29.6818 28.3178 29.997 27.4944L34.1396 16.6795C34.3984 15.9594 34.6717 15.3406 34.9602 14.8222C35.7374 13.4977 36.8276 12.8232 38.2388 12.7943C38.2533 12.7899 38.2576 12.7914 38.2692 12.7863C38.4218 12.7603 38.5367 12.6316 38.5367 12.4718C38.5367 12.3251 38.4348 12.213 38.301 12.1732C38.2801 12.1631 38.1673 12.1458 38.134 12.1436L32.9496 12.1429C32.9236 12.1479 32.8542 12.153 32.8332 12.161C32.6886 12.1935 32.5708 12.3171 32.5708 12.4718C32.5708 12.6468 32.7118 12.7849 32.8853 12.7907H32.9019Z" fill="white"/>
</svg>
