<svg width="40" height="40" viewBox="0 0 40 40" fill="none" xmlns="http://www.w3.org/2000/svg">
<path d="M39.6135 21.258L21.118 2.76265C20.941 2.58569 20.7176 2.46251 20.4735 2.40803L10.0895 0.0817178C9.64776 -0.0176914 9.18697 0.116936 8.86758 0.43633L0.386561 8.91787C0.0631768 9.24125 -0.069716 9.70898 0.0354185 10.1543L2.46114 20.4384C2.51753 20.677 2.63932 20.8952 2.81263 21.0689L21.3085 39.5639C21.5562 39.8116 21.8914 39.9506 22.2417 39.9506C22.592 39.9506 22.9277 39.8116 23.1749 39.5639L39.6128 23.1251C40.1291 22.6098 40.1291 21.7738 39.6135 21.258ZM22.2419 36.7641L4.94447 19.4669L2.7736 10.2641L10.2206 2.81625L19.5217 4.90003L36.8132 22.1912L22.2419 36.7641Z" fill="black" fill-opacity="0.2"/>
<path d="M14.9897 7.90138C14.0493 6.96107 12.7997 6.44373 11.4706 6.44373C10.1415 6.44373 8.89169 6.96159 7.95155 7.90138C6.01159 9.84221 6.01159 12.9992 7.95155 14.9397C8.89134 15.8795 10.1415 16.397 11.4706 16.397C12.7997 16.397 14.0495 15.8795 14.9897 14.9393C16.9293 12.9988 16.9293 9.84186 14.9897 7.90138ZM13.1227 13.0722C12.6814 13.5136 12.0945 13.7565 11.4706 13.7565C10.8467 13.7565 10.2596 13.5136 9.81846 13.0722C8.90765 12.1614 8.90765 10.6786 9.81846 9.76743C10.2598 9.32607 10.8467 9.08284 11.4706 9.08284C12.0945 9.08284 12.6816 9.32625 13.1227 9.76708C14.033 10.6791 14.033 12.1614 13.1227 13.0722Z" fill="black" fill-opacity="0.2"/>
<path d="M18.3042 16.1118L16.4206 17.9954L17.3279 18.9022C16.1571 20.5892 16.147 22.3293 17.3274 23.509C17.9575 24.1392 18.6522 24.4585 19.3932 24.4585H19.3937C20.5883 24.458 21.7212 23.6327 22.7764 22.7887C23.5609 22.1706 24.1624 21.8567 24.5642 21.8567C24.7203 21.8567 24.8379 21.9037 24.9439 22.0103C25.0989 22.1652 25.2871 22.4287 25.1402 22.9308C25.0267 23.3184 24.7309 23.7651 24.3078 24.1879C23.5777 24.9179 22.4391 25.2989 21.7658 25.0248L21.3571 24.8584L20.352 27.3444L20.7613 27.509C21.2602 27.7087 21.7781 27.8109 22.3008 27.8109C23.2847 27.8104 24.2795 27.4531 25.1995 26.7743L26.178 27.7528L28.0615 25.8695L27.0341 24.8427C28.0298 23.4738 28.3893 21.4915 26.9264 20.0282C26.277 19.3788 25.5532 19.0497 24.7744 19.0497C23.5165 19.0497 22.3465 19.8809 21.1581 20.808C20.6671 21.1956 19.9938 21.7257 19.5604 21.7257C19.4412 21.7257 19.3456 21.6826 19.2493 21.5868C19.1125 21.4499 18.973 21.2405 19.1098 20.8292C19.2221 20.4903 19.494 20.0991 19.8961 19.697C20.3853 19.2069 21.1189 18.8646 21.6799 18.8646C21.7658 18.8646 21.844 18.8734 21.9122 18.8901L22.2946 18.9846L23.1613 16.6236L22.7359 16.4775C21.5418 16.0674 20.4245 16.2341 19.2186 17.0271L18.3042 16.1118Z" fill="black" fill-opacity="0.2"/>
</svg>
