<svg width="40" height="40" viewBox="0 0 40 40" fill="none" xmlns="http://www.w3.org/2000/svg">
<path d="M34.1424 14.142V5.85755H25.8576L20 0L14.1424 5.85755H5.85755V14.142L0 20L5.85755 25.8576V34.142H14.1424L20 40L25.8576 34.142H34.1424V25.8576L40 20L34.1424 14.142ZM32.4698 25.165V32.4694H25.165L20 37.6348L14.835 32.4694H7.5302V25.165L2.36522 20L7.5302 14.8347V7.5302H14.835L20 2.36522L25.1649 7.5302H32.4697V14.8346L37.6348 20L32.4698 25.165Z" fill="black" fill-opacity="0.2"/>
<path d="M13.3904 20.4994L10.0135 16.0695H8.57632V22.9508H10.1122V18.6389L13.3904 22.9508H14.9261V16.0695H13.3904V20.4994Z" fill="black" fill-opacity="0.2"/>
<path d="M18.1551 20.1647H21.2362V18.8553H18.1551V17.4379H21.5808V16.0695H16.6194V22.9508H21.6889V21.5922H18.1551V20.1647Z" fill="black" fill-opacity="0.2"/>
<path d="M29.2402 20.0269L28.0292 16.0695H26.4242L25.2038 20.0269L23.8453 16.0695H22.1815L24.5835 22.9508H25.7254L27.2217 18.1664L28.7282 22.9508H29.8699L32.2723 16.0695H30.6086L29.2402 20.0269Z" fill="black" fill-opacity="0.2"/>
</svg>
